<?xml version="1.0" encoding="utf-8"?>
<!-- Generator: Adobe Illustrator 27.4.0, SVG Export Plug-In . SVG Version: 6.00 Build 0)  -->
<svg version="1.1" xmlns="http://www.w3.org/2000/svg" xmlns:xlink="http://www.w3.org/1999/xlink" x="0px" y="0px"
	 viewBox="0 0 288 288" style="enable-background:new 0 0 288 288;" xml:space="preserve">
<g id="Layer_1">
</g>
<g id="Layer_2">
	<path id="_x3C_Path_x3E_" d="M100.15,75.16c0,0-6.76,7.33-8.69,5.24c-1.48-1.6-0.77-4.66-0.32-6.54
		c2.59-10.8,14.37-21.07,22.04-28.62c3.98-3.92,8.21-7.6,12.71-10.91c16.67-12.28,39.09-18.17,39.2-16.07
		c0.11,1.95-1.83,6.61-7.93,14.01c-10.21,12.38-35.97,40.32-37.9,42.24c-4.37,4.37-8.48,9.04-12.65,13.59
		c-11.48,12.51-23.49,25.76-31.87,40.93c-2.28,4.13-14.46,26.15-13.03,25.63c0.62-0.23,8.06-8.5,15.75-15.75
		c7.09-6.68,14.41-12.32,16.18-13.57c3.69-2.61,14.47-11.18,33.77-23.46c17.59-11.19,39.05-23.39,40.07-23.24
		c1.1,0.17-10.42,8.73-23.02,17.92c-13.25,9.67-24.39,19.93-26.71,22.05c-6.29,5.72-12.18,11.93-18.06,18.07
		c-7.79,8.13-15.85,16.28-22.4,25.46c-7.66,10.73-14.07,22.44-20.67,33.83c-0.33,0.57-1.8,4.41-0.11,4.52
		c1.19,0.08,5.71-5.29,12.38-10.64c5.17-4.15,11.43-8.32,16.07-11.73c6.74-4.95,57.56-41,62.88-41.48
		c0.3-0.03-13.55,9.19-26.61,19.66c-10.31,8.27-19.92,17.8-23.13,20.96c-3.38,3.33-13.72,13.96-22.26,26.5
		c-9.84,14.43-17.81,29.21-19.44,32.47c-7.72,15.43-6.1,34.68,13.79,38.55c31.71,6.17,64.7-6.01,88.32-27.16
		c7.98-7.15,18.47-17.8,18.97-29.47c0.41-9.6-9.06-19.38-17.93-21.22c-5.14-1.06-10.82-1.25-15.85,0.42
		c-10.65,3.55-18.52,20.96-17.7,20.96c0,0,3.13-3.85,4.6-5.84c1.65-2.22,3.86-4.23,6.11-5.82c2.43-1.72,5.49-2.82,8.38-2.14
		c11.46,2.71,8.16,18.05,5.44,25.74c-5.06,14.34-15.98,27.63-30.41,33.66c-6.75,2.82-11.81,5.05-19.06,5.88
		c-6.92,0.79-14.71,1.63-21.56-0.06c-7.39-1.83-16.37-4.68-11.99-14.16c9.61-20.79,26.74-36.78,41.82-53.51
		c8.18-9.07,16.15-18.11,25.47-26.04c5.92-5.04,11.77-10.19,17.67-15.26c12.23-10.51,24.46-21.01,36.79-31.39
		c2.12-1.79,4.2-3.7,6.45-5.33c1.55-1.13,34.21-29.65,40.18-33.45c0.16-0.1-1.88,0.05-4.34,0.9c-6.76,2.33-13.42,4.95-20.08,7.54
		c-17.56,6.84-34.71,15.65-50.6,25.87c-0.12,0.07-0.23,0.15-0.35,0.23c-2.54,1.77-61.41,37.38-61.41,37.38
		c-0.87-1.3,22.13-23.97,23.4-25.22c1.28-1.25,38.5-36.52,39.96-37.57c1.47-1.06,26.5-23.19,28.24-24.54
		c1.74-1.36,10.05-9.1,18.27-14.8c7.23-5.01,11.48-7,13.6-7.57c0.78-0.21-2.21-1.25-4.89-0.73c-4.24,0.81-12.79,3.47-20.12,6.43
		c-10.97,4.44-21.54,10.15-23.16,11.02c-1.76,0.95-13.88,7-26.44,14.88c-14.43,9.04-28.91,18.73-29.81,19
		c0.32-0.1,1.98-3.29,2.31-3.75c2.1-3,4.27-5.94,6.46-8.87c6.48-8.67,13.23-16.48,21.03-23.98c6.2-5.96,12.38-11.93,18.53-17.94
		c4.92-4.81,10.05-9.77,14.38-15.25c2.84-3.59,9.17-10.43,6.93-15.51c-1.59-3.6-8-6.23-13.93-6.43c-4.01-0.14-7.04,0.62-10.91,1.38
		c-14.82,2.93-26.41,9.17-32.85,12.81c-5.76,3.26-22.15,14.55-31.49,24.54c-2.69,2.88-14.77,14.55-16.07,26.5
		c-0.87,7.95,5.09,10.12,6.52,10.21C92.44,87.32,100.91,79.83,100.15,75.16z"/>
</g>
</svg>
