<?xml version="1.0" standalone="no"?>
<!DOCTYPE svg PUBLIC "-//W3C//DTD SVG 20010904//EN"
 "http://www.w3.org/TR/2001/REC-SVG-20010904/DTD/svg10.dtd">
<svg version="1.0" xmlns="http://www.w3.org/2000/svg"
 width="700.000000pt" height="700.000000pt" viewBox="0 0 700.000000 700.000000"
 preserveAspectRatio="xMidYMid meet">
<metadata>
Created by potrace 1.14, written by Peter Selinger 2001-2017
</metadata>
<g transform="translate(0.000000,700.000000) scale(0.100000,-0.100000)"
fill="#000000" stroke="none">
<path d="M4065 6703 c-259 -44 -497 -123 -746 -248 -300 -151 -661 -417 -911
-671 -134 -138 -186 -198 -254 -300 -169 -254 -195 -478 -65 -568 51 -36 90
-39 140 -13 90 49 169 134 196 214 18 51 9 61 -24 25 -46 -51 -121 -102 -150
-102 -106 0 -26 289 134 479 83 99 124 143 258 276 294 289 476 430 721 554
217 111 489 208 596 214 39 2 45 -1 48 -19 4 -28 -37 -119 -87 -192 -34 -51
-164 -215 -195 -248 -6 -6 -33 -37 -61 -69 -27 -33 -61 -70 -74 -84 -13 -15
-46 -53 -75 -85 -28 -32 -60 -69 -71 -80 -11 -12 -58 -64 -105 -116 -47 -52
-106 -117 -131 -145 -26 -27 -59 -63 -74 -80 -94 -103 -220 -238 -278 -299
-60 -62 -191 -202 -236 -255 -9 -10 -57 -63 -107 -117 -50 -55 -106 -117 -125
-139 -19 -21 -41 -46 -49 -55 -102 -110 -287 -347 -385 -495 -131 -197 -468
-816 -452 -831 3 -3 97 86 209 198 112 112 223 222 248 243 399 353 1198 894
1875 1271 38 21 79 44 90 51 11 6 40 21 65 34 25 12 53 26 62 31 13 6 16 5 12
-4 -8 -18 -79 -73 -564 -436 -440 -328 -675 -541 -1165 -1056 -194 -204 -170
-177 -260 -281 -103 -119 -132 -156 -218 -279 -74 -104 -216 -327 -259 -406
-11 -19 -46 -80 -79 -135 -148 -251 -187 -339 -153 -352 16 -6 56 22 124 88
135 129 234 207 573 449 241 172 270 193 337 238 30 20 57 39 60 42 3 3 48 35
100 71 52 36 131 90 175 121 167 115 482 326 528 354 27 16 59 36 72 44 63 41
223 130 234 130 8 0 -51 -45 -130 -101 -218 -153 -608 -453 -649 -498 -3 -3
-45 -42 -95 -86 -49 -43 -181 -169 -291 -280 -169 -168 -252 -260 -433 -480
-72 -87 -244 -349 -385 -585 -260 -435 -315 -573 -318 -790 -3 -292 173 -490
477 -535 22 -4 51 -8 65 -11 159 -29 483 -24 687 12 165 28 422 100 528 148
17 7 55 24 85 37 323 140 649 371 910 644 189 197 288 386 292 554 5 229 -200
464 -454 517 -83 18 -217 20 -298 4 -159 -30 -317 -171 -442 -395 -24 -42 -58
-125 -53 -125 2 0 29 33 60 73 174 224 314 300 446 239 98 -45 140 -116 147
-250 16 -284 -162 -674 -420 -920 -164 -158 -315 -243 -613 -348 -53 -19 -153
-42 -210 -48 -27 -3 -76 -9 -110 -13 -79 -9 -307 -10 -367 -1 -69 10 -196 47
-243 70 -105 53 -153 122 -140 201 23 140 286 553 512 804 15 17 39 44 52 60
21 25 180 200 221 243 8 9 59 63 112 121 54 58 110 119 125 135 16 17 62 68
103 114 201 225 389 415 546 550 16 14 76 66 134 115 58 50 118 102 135 117
40 35 70 61 129 111 27 23 54 47 60 52 6 6 119 102 251 215 132 112 242 207
245 210 3 3 61 53 130 110 69 58 127 107 130 110 3 3 75 64 160 135 138 115
347 292 360 305 3 3 48 41 100 85 52 44 106 89 120 102 52 46 249 210 363 301
65 52 116 96 114 98 -6 6 -79 -16 -222 -68 -166 -60 -567 -219 -610 -242 -16
-9 -34 -16 -39 -16 -30 0 -524 -257 -757 -394 -34 -20 -397 -246 -469 -291
-19 -12 -163 -100 -320 -195 -309 -188 -317 -193 -382 -231 -23 -14 -148 -89
-275 -167 -128 -78 -233 -138 -233 -133 0 37 551 594 1035 1046 22 21 107 101
189 179 243 229 278 261 351 322 39 32 88 75 110 95 22 20 83 73 135 119 52
45 124 108 160 140 36 31 135 117 220 190 85 73 171 147 190 164 140 126 405
310 527 367 40 19 73 37 73 40 0 11 -37 17 -87 14 -74 -5 -407 -109 -528 -164
-11 -5 -69 -31 -130 -57 -60 -26 -193 -90 -295 -142 -405 -207 -502 -262 -950
-542 -22 -14 -138 -88 -257 -165 -119 -77 -230 -148 -246 -158 l-29 -18 24 43
c12 24 26 47 30 53 394 530 385 520 1008 1125 316 307 413 411 533 571 81 109
104 168 98 256 -2 33 -57 91 -113 119 -108 55 -250 72 -393 47z"/>
</g>
</svg>
